<svg width="35" height="35" viewBox="0 0 35 35" fill="none" xmlns="http://www.w3.org/2000/svg">
<g clip-path="url(#clip0_25_49)">
<path d="M30.2273 0H4.77273C3.50692 0 2.29296 0.502839 1.3979 1.3979C0.502839 2.29296 0 3.50692 0 4.77273L0 30.2273C0 31.4931 0.502839 32.707 1.3979 33.6021C2.29296 34.4972 3.50692 35 4.77273 35H30.2273C31.4931 35 32.707 34.4972 33.6021 33.6021C34.4972 32.707 35 31.4931 35 30.2273V4.77273C35 3.50692 34.4972 2.29296 33.6021 1.3979C32.707 0.502839 31.4931 0 30.2273 0ZM20.9304 27.9503C20.3696 28.0577 20.1787 27.7196 20.1787 27.4392C20.1787 27.0892 20.1926 25.9338 20.1926 24.496C20.1926 23.4878 19.8366 22.8295 19.4548 22.5074C21.8869 22.2429 24.4443 21.3341 24.4443 17.2057C24.4605 16.1339 24.0581 15.0981 23.3227 14.3182C23.4321 14.0457 23.802 12.952 23.2134 11.4724C23.2134 11.4724 22.2986 11.1841 20.2304 12.5741C18.4394 12.0916 16.5526 12.0916 14.7616 12.5741C12.6696 11.1821 11.7528 11.4724 11.7528 11.4724C11.1562 12.956 11.5341 14.0497 11.6474 14.3182C10.9103 15.0956 10.5064 16.1305 10.5219 17.2017C10.5219 21.3182 13.0753 22.2429 15.4935 22.5114C15.0969 22.8915 14.8511 23.4021 14.8014 23.9491C14.175 24.2236 12.5901 24.6989 11.6196 23.0563C11.6196 23.0563 11.0429 22.0222 9.94517 21.9486C9.94517 21.9486 8.87727 21.9347 9.86761 22.6009C9.86761 22.6009 10.5875 22.933 11.0847 24.1719C11.0847 24.1719 11.727 26.2619 14.7696 25.6156C14.7696 26.5105 14.7815 27.1866 14.7815 27.4432C14.7815 27.6997 14.5827 28.0597 14.0358 27.9582C9.69659 26.5423 6.5625 22.5153 6.5625 17.7665C6.5625 11.8304 11.4565 7.02784 17.5 7.02784C23.5435 7.02784 28.4375 11.8403 28.4375 17.7764C28.4375 22.5074 25.3074 26.5384 20.9304 27.9503Z" fill="black"/>
</g>
<defs>
<clipPath id="clip0_25_49">
<rect width="35" height="35" fill="white"/>
</clipPath>
</defs>
</svg>
