<svg width="35" height="35" viewBox="0 0 35 35" fill="none" xmlns="http://www.w3.org/2000/svg">
<g clip-path="url(#clip0_9_95)">
<path d="M2.18751 2.38145C-0.562911 5.23833 5.7593e-06 8.27312 5.7593e-06 17.4927C5.7593e-06 25.149 -1.33583 32.8242 5.65542 34.631C7.83855 35.1925 27.1819 35.1925 29.3621 34.6281C32.2729 33.8771 34.6413 31.516 34.965 27.3992C35.0102 26.8246 35.0102 8.17104 34.9635 7.58479C34.6194 3.19958 31.92 0.672288 28.3631 0.160413C27.5479 0.0422881 27.3846 0.00728812 23.2021 -3.54648e-06C8.36646 0.00728812 5.11438 -0.653337 2.18751 2.38145Z" fill="url(#paint0_linear_9_95)"/>
<path d="M17.4971 4.57772C12.2019 4.57772 7.17356 4.10668 5.25293 9.03584C4.4596 11.0717 4.57481 13.7156 4.57481 17.5015C4.57481 20.8236 4.46835 23.9458 5.25293 25.9656C7.16918 30.8977 12.2383 30.4252 17.4942 30.4252C22.5648 30.4252 27.7929 30.9531 29.7369 25.9656C30.5317 23.9094 30.415 21.3048 30.415 17.5015C30.415 12.4527 30.6936 9.19334 28.245 6.74626C25.7658 4.26709 22.4131 4.57772 17.4913 4.57772H17.4971ZM16.3392 6.90668C27.3846 6.88918 28.7904 5.66126 28.0146 22.7194C27.739 28.7525 23.1452 28.0904 17.4986 28.0904C7.20272 28.0904 6.90668 27.7958 6.90668 17.4956C6.90668 7.07584 7.72335 6.91251 16.3392 6.90376V6.90668ZM24.395 9.05189C23.539 9.05189 22.8448 9.74605 22.8448 10.6021C22.8448 11.4581 23.539 12.1523 24.395 12.1523C25.2511 12.1523 25.9452 11.4581 25.9452 10.6021C25.9452 9.74605 25.2511 9.05189 24.395 9.05189ZM17.4971 10.8646C13.8323 10.8646 10.8617 13.8367 10.8617 17.5015C10.8617 21.1663 13.8323 24.1369 17.4971 24.1369C21.1619 24.1369 24.1311 21.1663 24.1311 17.5015C24.1311 13.8367 21.1619 10.8646 17.4971 10.8646ZM17.4971 13.1936C23.1919 13.1936 23.1992 21.8094 17.4971 21.8094C11.8038 21.8094 11.795 13.1936 17.4971 13.1936Z" fill="white"/>
</g>
<defs>
<linearGradient id="paint0_linear_9_95" x1="2.25462" y1="32.7645" x2="34.7834" y2="4.61121" gradientUnits="userSpaceOnUse">
<stop stop-color="#FFDD55"/>
<stop offset="0.5" stop-color="#FF543E"/>
<stop offset="1" stop-color="#C837AB"/>
</linearGradient>
<clipPath id="clip0_9_95">
<rect width="35" height="35" fill="white"/>
</clipPath>
</defs>
</svg>
