<svg width="35" height="35" viewBox="0 0 35 35" fill="none" xmlns="http://www.w3.org/2000/svg">
<g clip-path="url(#clip0_10_114)">
<path d="M30.2273 0H4.77273C2.13682 0 0 2.13682 0 4.77273V30.2273C0 32.8632 2.13682 35 4.77273 35H30.2273C32.8632 35 35 32.8632 35 30.2273V4.77273C35 2.13682 32.8632 0 30.2273 0Z" fill="#0077B5"/>
<path d="M12.6079 9.54545C12.6079 10.1354 12.433 10.7122 12.1052 11.2027C11.7775 11.6932 11.3116 12.0756 10.7665 12.3013C10.2214 12.5271 9.62168 12.5862 9.04304 12.4711C8.4644 12.356 7.93289 12.0719 7.51572 11.6547C7.09854 11.2375 6.81444 10.706 6.69935 10.1274C6.58425 9.54876 6.64332 8.94899 6.86909 8.40393C7.09487 7.85886 7.4772 7.39299 7.96774 7.06522C8.45829 6.73745 9.03501 6.5625 9.62499 6.5625C10.4161 6.5625 11.1748 6.87677 11.7343 7.43619C12.2937 7.9956 12.6079 8.75433 12.6079 9.54545Z" fill="white"/>
<path d="M11.9318 14.5171V27.6958C11.9323 27.793 11.9136 27.8893 11.8768 27.9793C11.8399 28.0693 11.7857 28.1511 11.7171 28.22C11.6485 28.2889 11.567 28.3436 11.4773 28.381C11.3875 28.4183 11.2912 28.4375 11.194 28.4375H8.04996C7.95273 28.4378 7.85642 28.4188 7.76655 28.3817C7.67668 28.3446 7.59502 28.2902 7.52627 28.2214C7.45753 28.1527 7.40305 28.071 7.36596 27.9811C7.32888 27.8913 7.30992 27.795 7.31018 27.6977V14.5171C7.31018 14.3209 7.38812 14.1327 7.52686 13.994C7.66559 13.8552 7.85376 13.7773 8.04996 13.7773H11.194C11.3898 13.7778 11.5775 13.856 11.7158 13.9947C11.8541 14.1333 11.9318 14.3212 11.9318 14.5171Z" fill="white"/>
<path d="M28.3659 21.3779V27.7574C28.3662 27.8468 28.3488 27.9353 28.3147 28.018C28.2806 28.1006 28.2305 28.1757 28.1673 28.2389C28.1041 28.3021 28.029 28.3522 27.9464 28.3863C27.8637 28.4204 27.7752 28.4378 27.6858 28.4375H24.3051C24.2157 28.4378 24.1272 28.4204 24.0445 28.3863C23.9619 28.3522 23.8868 28.3021 23.8236 28.2389C23.7604 28.1757 23.7103 28.1006 23.6762 28.018C23.6421 27.9353 23.6247 27.8468 23.625 27.7574V21.5747C23.625 20.652 23.8955 17.5338 21.2128 17.5338C19.1347 17.5338 18.7111 19.6676 18.6276 20.6261V27.7574C18.6276 27.9361 18.5573 28.1076 18.4319 28.2348C18.3065 28.3621 18.136 28.4349 17.9574 28.4375H14.692C14.6028 28.4375 14.5145 28.4199 14.4321 28.3857C14.3497 28.3515 14.2748 28.3014 14.2118 28.2382C14.1488 28.175 14.0989 28.1 14.065 28.0175C14.031 27.935 14.0137 27.8466 14.0139 27.7574V14.4594C14.0137 14.3702 14.031 14.2818 14.065 14.1993C14.0989 14.1168 14.1488 14.0418 14.2118 13.9786C14.2748 13.9154 14.3497 13.8653 14.4321 13.8311C14.5145 13.7969 14.6028 13.7793 14.692 13.7793H17.9574C18.1378 13.7793 18.3108 13.8509 18.4383 13.9785C18.5658 14.106 18.6375 14.279 18.6375 14.4594V15.6088C19.4091 14.4514 20.5526 13.5585 22.9926 13.5585C28.3977 13.5585 28.3659 18.6057 28.3659 21.3779Z" fill="white"/>
</g>
<defs>
<clipPath id="clip0_10_114">
<rect width="35" height="35" fill="white"/>
</clipPath>
</defs>
</svg>
