<svg width="35" height="35" viewBox="0 0 35 35" fill="none" xmlns="http://www.w3.org/2000/svg">
<g clip-path="url(#clip0_25_56)">
<path d="M30.2273 0H4.77273C2.13682 0 0 2.13682 0 4.77273V30.2273C0 32.8632 2.13682 35 4.77273 35H30.2273C32.8632 35 35 32.8632 35 30.2273V4.77273C35 2.13682 32.8632 0 30.2273 0Z" fill="#1C8ADB"/>
<path d="M27.0335 9.04829L26.6716 9.17954L7.02787 16.2571C6.88866 16.3001 6.76767 16.3882 6.68386 16.5074C6.60006 16.6266 6.55817 16.7702 6.56476 16.9157C6.57136 17.0613 6.62607 17.2006 6.72031 17.3117C6.81455 17.4228 6.94301 17.4995 7.08554 17.5298L12.1705 18.9219L13.1191 21.706L14.0676 24.49C14.1221 24.6265 14.2091 24.7476 14.321 24.8429C14.433 24.9381 14.5664 25.0046 14.7099 25.0365C14.8533 25.0685 15.0024 25.0649 15.1442 25.0262C15.2859 24.9874 15.4161 24.9147 15.5233 24.8142L18.1503 22.3324L23.3088 25.8304C23.9392 26.2599 24.8381 25.9418 24.9992 25.2338L28.4156 10.1381C28.5827 9.39033 27.7952 8.77584 27.0335 9.04829ZM24.5259 12.3991L15.6506 19.6537L15.233 19.9957C15.1412 20.0685 15.0813 20.174 15.0659 20.29L14.9725 21.0616L14.7159 23.2293C14.718 23.2556 14.7096 23.2818 14.6924 23.3019C14.6753 23.322 14.6508 23.3345 14.6245 23.3366C14.5981 23.3387 14.572 23.3303 14.5518 23.3131C14.5317 23.296 14.5192 23.2715 14.5171 23.2452L13.7952 21.0795L13.0495 18.8622C13.0179 18.7625 13.0221 18.655 13.0613 18.5581C13.1005 18.4612 13.1723 18.381 13.2642 18.3312L22.4995 13.0375L24.2375 12.0432C24.4901 11.896 24.7486 12.2162 24.5259 12.3991Z" fill="white"/>
</g>
<defs>
<clipPath id="clip0_25_56">
<rect width="35" height="35" fill="white"/>
</clipPath>
</defs>
</svg>
