<svg width="35" height="35" viewBox="0 0 35 35" fill="none" xmlns="http://www.w3.org/2000/svg">
<g clip-path="url(#clip0_9_102)">
<path d="M35.0724 27.9364C35.0724 31.8612 31.8612 35.0724 27.9364 35.0724H7.0636C3.13877 35.0724 -0.0723877 31.8612 -0.0723877 27.9364V7.0636C-0.0723877 3.13885 3.13877 -0.0723877 7.0636 -0.0723877H27.9364C31.8612 -0.0723877 35.0724 3.13885 35.0724 7.0636V27.9364Z" fill="#41464A"/>
<path d="M20.1301 15.7476L28.584 5.21109H26.1353L18.9062 14.2219L11.6763 5.21109H3.60443L14.8699 19.2522L6.41525 29.7895H8.86392L16.0938 20.7779L23.3245 29.7895H31.3963L20.1301 15.7476ZM7.58496 7.12106H10.7594L27.415 27.8794H24.2405L7.58496 7.12106Z" fill="#F0F0F1"/>
</g>
<defs>
<clipPath id="clip0_9_102">
<rect width="35" height="35" fill="white"/>
</clipPath>
</defs>
</svg>
