<svg width="165" height="50" viewBox="0 0 165 50" fill="none" xmlns="http://www.w3.org/2000/svg">
<path d="M18.3882 19.7065H17.0962C16.5514 19.7065 16.1155 20.1908 16.1155 20.796C16.1155 21.4013 16.5514 21.8856 17.0962 21.8856H17.4075V24.1857C17.4075 25.5173 16.4424 26.5895 15.2438 26.5895H7.18057C5.98198 26.5895 5.01687 25.5173 5.01687 24.1857V20.796C5.01687 20.1908 4.58102 19.7065 4.03621 19.7065C3.49139 19.7065 3.05554 20.1908 3.05554 20.796V24.1857C3.05554 26.7106 4.90791 28.7686 7.18057 28.7686H15.2438C17.5165 28.7686 19.3688 26.7106 19.3688 24.1857V20.796C19.3688 20.1908 18.933 19.7065 18.3882 19.7065Z" fill="#004D77"/>
<path d="M33.8766 19.6891C33.3317 19.6891 32.8958 20.1733 32.8958 20.7786V24.2719C32.8958 25.6036 31.9307 26.6758 30.7322 26.6758C29.5336 26.6758 28.5685 25.6036 28.5685 24.2719V16.7145C28.5685 16.1092 28.1326 15.625 27.5878 15.625C27.043 15.625 26.6072 16.1092 26.6072 16.7145V24.2719C26.6072 26.7969 28.4595 28.8549 30.7322 28.8549C33.0048 28.8549 34.8572 26.7969 34.8572 24.2719V20.7786C34.8572 20.1906 34.4214 19.6891 33.8766 19.6891Z" fill="#004D77"/>
<path d="M65.1018 20.7961C65.1018 20.1908 64.6658 19.7065 64.121 19.7065C63.5763 19.7065 63.1404 20.1908 63.1404 20.7961V24.2894C63.1404 25.6211 62.1753 26.6933 60.9768 26.6933C59.7781 26.6933 58.813 25.6211 58.813 24.2894V20.7961C58.813 20.1908 58.3772 19.7065 57.8324 19.7065C57.8324 19.7065 57.8324 19.7065 57.8167 19.7065C57.2719 19.7065 56.8361 20.1908 56.8361 20.7961V24.2894C56.8361 25.5346 55.98 26.5549 54.8903 26.676C54.8592 26.676 54.8126 26.676 54.7813 26.6933H54.7658C54.7347 26.6933 54.7036 26.6933 54.688 26.6933H54.6725C53.4894 26.676 52.5243 25.5519 52.5243 24.2202V20.8825C52.5243 20.796 52.5087 20.6923 52.4932 20.6231C52.3842 20.1043 51.9795 19.7238 51.4813 19.7065C51.4658 19.7065 51.4502 19.7065 51.4347 19.7065C51.1389 19.7065 50.8743 19.8449 50.6719 20.0524C50.4851 20.2772 50.3606 20.5712 50.3606 20.8998V24.2202C50.3606 25.5 49.4734 26.6241 48.3059 26.6933C47.2007 26.7624 46.2511 25.8805 46.0644 24.7218C46.0644 24.324 46.0644 20.8652 46.0644 20.8652C46.0644 20.381 45.8464 19.9487 45.3016 19.8103C45.2238 19.793 45.1304 19.7757 45.0525 19.7757H42.204C41.0988 19.7238 40.0403 20.1735 39.2464 21.0209C38.4369 21.8683 38.0011 23.027 37.9855 24.2721C37.9855 26.7624 39.8846 28.7858 42.1261 28.7858H43.2468C43.7606 28.7858 44.2275 28.3535 44.2587 27.7655C44.2898 27.1256 43.8383 26.6068 43.2781 26.6068H42.0794C40.943 26.6068 39.9779 25.6211 39.9313 24.3413C39.9157 23.6668 40.1491 23.0443 40.5851 22.5946C41.0054 22.145 41.5502 21.9202 42.1261 21.9547H44.0563V24.2029C44.0563 26.676 45.7842 28.7513 47.9946 28.8551C49.3799 28.9242 50.6097 28.2324 51.4036 27.1256C52.1196 28.1114 53.1937 28.7858 54.4077 28.8551H54.4234C54.4856 28.8551 54.5635 28.8551 54.6414 28.8551H54.6568C54.688 28.8551 54.7191 28.8551 54.7658 28.8551C54.8281 28.8551 54.9059 28.8549 54.9682 28.8377C55.1239 28.8204 55.2795 28.8032 55.4196 28.7686C55.6998 28.7167 55.98 28.6302 56.2446 28.4918C56.2914 28.4745 56.3225 28.4573 56.3691 28.4227C56.9295 28.146 57.4121 27.7136 57.8012 27.2121C58.564 28.2151 59.6847 28.8377 60.9455 28.8377C63.2182 28.8377 65.0707 26.7797 65.0707 24.2548V20.7961H65.1018Z" fill="#004D77"/>
<path d="M86.5987 19.7065C84.326 19.7065 82.4737 21.7645 82.4737 24.2894V24.3067C82.4737 25.6383 81.5086 26.7106 80.31 26.7106H79.485C79.8897 26.0015 80.1231 25.1714 80.1231 24.2894C80.1231 21.7645 78.2708 19.7065 75.9981 19.7065H73.1962C72.6514 19.7065 72.2156 20.1908 72.2156 20.796C72.2156 21.4013 72.6514 21.8856 73.1962 21.8856H75.9981C77.1967 21.8856 78.1618 22.9578 78.1618 24.2894C78.1618 25.621 77.1967 26.6933 75.9981 26.6933H73.1962C72.6514 26.6933 72.2156 27.1775 72.2156 27.7828C72.2156 28.388 72.6514 28.8723 73.1962 28.8723H75.6712C75.7334 28.8896 75.7958 28.8896 75.8735 28.8896H80.3255C81.5863 28.8896 82.7226 28.2498 83.4854 27.2467C84.2481 28.2324 85.369 28.8551 86.6141 28.8551C88.8868 28.8551 90.7393 26.797 90.7393 24.2721C90.7237 21.7472 88.8713 19.7065 86.5987 19.7065ZM86.5987 26.676C85.4001 26.676 84.435 25.6038 84.435 24.2721C84.435 22.9405 85.4001 21.8683 86.5987 21.8683C87.7972 21.8683 88.7623 22.9405 88.7623 24.2721C88.7623 25.6038 87.7817 26.676 86.5987 26.676Z" fill="#004D77"/>
<path d="M69.0559 19.7065H67.8106C67.2658 19.7065 66.8299 20.1908 66.8299 20.7961C66.8299 21.4013 67.2658 21.8856 67.8106 21.8856H68.0752V27.5061C68.0752 28.8377 67.1101 29.9099 65.9115 29.9099C65.3667 29.9099 64.9308 30.3942 64.9308 30.9995C64.9308 31.6048 65.3667 32.0889 65.9115 32.0889C68.1842 32.0889 70.0365 30.031 70.0365 27.5061V20.7961C70.0365 20.1908 69.5851 19.7065 69.0559 19.7065Z" fill="#004D77"/>
<path d="M23.7109 19.7065H22.4656C21.9208 19.7065 21.4849 20.1908 21.4849 20.7961C21.4849 21.4013 21.9208 21.8856 22.4656 21.8856H22.7302V27.5061C22.7302 28.8377 21.7651 29.9099 20.5665 29.9099C20.0217 29.9099 19.5859 30.3942 19.5859 30.9995C19.5859 31.6048 20.0217 32.0889 20.5665 32.0889C22.8392 32.0889 24.6915 30.031 24.6915 27.5061V20.7961C24.6915 20.1908 24.2557 19.7065 23.7109 19.7065Z" fill="#004D77"/>
<path d="M8.34834 21.8682H12.3955C12.9403 21.8682 13.3762 21.384 13.3762 20.7787C13.3762 20.1734 12.9403 19.6892 12.3955 19.6892H8.34834C7.80352 19.6892 7.36768 20.1734 7.36768 20.7787C7.36768 21.384 7.80352 21.8682 8.34834 21.8682Z" fill="#004D77"/>
<path d="M32.9896 30.5496H28.4599C27.7905 30.5496 27.2302 31.1549 27.2302 31.9158C27.2302 32.6767 27.775 33.282 28.4599 33.282H31.7599V34.1467C31.7599 34.8904 32.3047 35.513 32.9896 35.513C33.6745 35.513 34.2194 34.9077 34.2194 34.1467V31.9158C34.2038 31.1549 33.659 30.5496 32.9896 30.5496Z" fill="#004D77"/>
<path d="M157.28 28.3729C157.28 29.3876 156.65 30.2709 155.782 30.6091C156.669 30.9662 157.28 31.8304 157.28 32.8453C157.28 31.8304 157.908 30.9474 158.778 30.6091C157.908 30.2709 157.28 29.3876 157.28 28.3729ZM148.458 3.11731C148.106 3.09853 147.755 3.07974 147.386 3.11731C146.22 3.24885 145.203 3.71865 144.352 4.54546C144.204 4.677 144.074 4.82732 143.945 4.99646C143.557 5.48503 143.242 6.02997 142.946 6.59372C142.928 6.63129 142.909 6.66888 142.909 6.70647C142.798 6.91318 142.687 7.11987 142.595 7.34537L142.447 7.70241C142.391 7.79637 142.354 7.90912 142.317 8.02185C142.17 8.41649 142.262 8.8111 142.595 9.07418C143.113 9.50638 143.649 9.95737 144.167 10.3896C144.352 10.5587 144.592 10.6151 144.851 10.5963C145.036 10.5963 145.203 10.4835 145.351 10.3896C145.351 10.3896 146.663 9.6943 147.718 8.34131C148.218 7.72121 148.568 7.08229 148.772 6.38702C149.031 5.44744 149.031 4.4515 148.717 3.39919C148.717 3.21128 148.606 3.11731 148.458 3.11731ZM141.707 11.3291C141.67 11.5922 141.929 11.8177 142.188 11.7238L144.426 10.9533L142.021 8.98022L141.707 11.3291ZM141.911 7.96549C142.17 7.289 142.502 6.6313 142.891 6.01118C142.965 5.87965 143.02 5.7481 142.928 5.61657C142.817 5.46624 142.687 5.48503 142.539 5.52262C141.892 5.65415 141.356 6.29306 140.949 6.76284C140.69 7.0635 140.412 7.45812 140.616 7.87153C140.819 8.3789 141.689 8.56681 141.911 7.96549ZM158.131 11.5171C156.762 10.9721 155.782 9.60034 155.782 8.02185C155.782 9.61913 154.802 10.9721 153.433 11.5171C154.802 12.062 155.782 13.4338 155.782 15.0122C155.782 13.415 156.762 12.062 158.131 11.5171ZM117.035 1.2006C117.035 2.49721 116.24 3.60588 115.13 4.03809C116.24 4.48909 117.035 5.57899 117.035 6.87559C117.035 5.57899 117.831 4.47029 118.94 4.03809C117.831 3.5871 117.035 2.47841 117.035 1.2006ZM147.403 9.2433C147.236 9.16813 147.108 9.26209 146.996 9.39363C146.423 9.97616 145.831 10.5211 145.184 10.9909C144.629 11.4043 145.036 12.3063 145.61 12.419C146.109 12.513 146.442 12.1184 146.701 11.7425C147.108 11.16 147.643 10.3896 147.626 9.65671C147.607 9.46879 147.588 9.31847 147.403 9.2433Z" fill="#FC5954"/>
<path d="M124.848 39.61C126.309 44.5897 129.028 47.8594 129.583 48.799C129.601 48.6673 129.583 48.5547 129.564 48.4419C129.287 47.089 128.103 43.3682 128.103 41.959C128.103 41.5268 128.196 41.4515 128.621 41.5831C131.709 42.579 134.835 42.7481 138.016 42.0904C138.7 41.959 139.385 41.771 140.051 41.5454C134.632 39.6475 126.42 35.0248 123.646 32.4693C123.72 34.7618 124.09 37.0168 124.848 39.61Z" fill="#004D77"/>
<path d="M163.593 42.1846C162.965 40.9066 162.076 39.8356 161.078 38.8396C160.024 37.7685 158.878 36.7913 157.712 35.8518C157.194 35.4384 156.676 35.025 156.177 34.574C155.696 34.1418 155.197 33.7284 154.586 33.5216C153.514 33.1647 152.367 33.8224 152.367 35.0625C152.367 35.9269 153.052 36.5847 153.68 37.0732C154.809 37.9376 155.937 38.8209 157.028 39.7416C157.546 40.1738 159.506 41.4893 158.84 42.3537C158.507 42.7859 157.639 42.5415 157.194 42.4663C154.735 42.0529 149.816 40.3053 145.617 38.539C147.522 37.0356 149.15 35.1565 150.389 33.0331C154.384 26.2118 154.087 16.7974 147.762 11.7237C147.836 11.874 148.484 12.9451 148.946 14.4109C149.557 16.2712 149.999 18.7329 149.999 20.1985C149.999 23.4682 149.167 26.4562 147.189 29.0869C143.379 34.1606 135.278 35.0625 130.913 29.3876C128.898 26.7568 128.213 23.7313 128.583 20.4429C128.583 20.4429 128.916 21.1757 129.009 21.4013C129.693 22.9046 130.71 24.314 131.968 25.3662C133.336 26.5125 135.001 27.2641 136.85 27.3206C140.198 27.4144 143.157 25.0091 143.989 21.7582C144.544 19.5972 144.211 17.1544 143.065 15.2565C142.787 14.8054 142.436 14.2793 142.066 13.8847C141.844 14.1478 141.455 14.5988 140.808 15.4068C140.697 15.5572 140.66 15.745 140.79 15.8954C141.233 16.4403 141.474 17.2859 141.344 18C141.271 18.4134 141.086 18.7893 140.827 19.1087C140.753 19.2026 140.068 19.8603 139.994 19.7665C140.401 20.255 140.586 20.9503 140.401 21.6643C140.161 22.5475 139.365 23.1488 138.478 23.1865C137.812 23.2053 137.405 22.9234 136.906 22.5287C136.832 22.4724 136.758 22.3972 136.665 22.3409C135.778 23.036 134.52 23.0549 133.595 22.3972C132.911 21.8899 132.522 20.9503 132.486 20.0671C132.486 19.9543 132.633 19.8791 132.707 19.9731C133.244 20.5744 134.076 20.6307 134.686 20.1047C134.649 20.1422 134.28 19.9168 134.224 19.8791C134.058 19.7851 133.91 19.6725 133.762 19.5597C133.484 19.3343 133.225 19.0712 133.04 18.7516C132.06 17.1732 133.04 14.9559 134.594 14.1854C134.982 13.9975 135.408 13.8847 135.833 13.8847C136.351 13.8847 136.869 14.0163 137.294 14.3169C137.664 14.58 138.126 14.9746 138.607 14.7679C138.903 14.6364 139.088 14.3169 139.292 14.0726C139.55 13.7532 140.327 12.776 140.457 12.6257C137.294 10.6902 132.8 10.8781 129.637 13.4901C125.938 16.5531 124.274 22.0401 123.775 26.7568C122.295 25.836 120.852 24.8965 119.41 23.9193C120.519 18.3759 122.942 12.7948 127.677 9.52512C129.619 8.19093 131.894 7.25135 134.243 6.80037C135.648 6.42453 137.941 6.14266 141.16 6.66882C140.716 6.40575 140.253 6.18025 139.772 5.99234C134.853 3.96287 129.212 4.26353 124.607 6.96949C119.576 9.91972 116.432 15.2376 115.6 21.0254C115.6 21.0629 114.231 20.0294 114.046 19.8791C113.491 19.4281 107.703 14.9371 105.835 12.6633C105.65 12.4378 105.539 12.2123 105.705 11.9304C105.872 11.6485 106.131 11.5358 106.445 11.611C108.794 12.1183 110.995 13.1518 113.288 13.8659C114.731 14.3169 115.729 13.3961 115.729 12.325C115.729 10.7278 113.769 10.3895 112.622 9.9949C110.329 9.22446 108.054 8.49159 105.65 8.13454C104.522 7.96543 103.43 8.04059 102.376 8.47279C101.618 8.79225 101.008 9.44994 100.786 10.258C100.545 11.1788 100.915 12.1559 101.359 12.9639C102.339 14.7303 103.689 16.1585 105.114 17.5303C108.295 20.5744 111.79 23.2616 115.396 25.7797C115.47 27.3769 115.692 28.9741 116.044 30.5338C116.654 33.2774 117.542 36.0209 118.836 38.5201C118.781 38.1444 118.836 38.5201 118.762 37.374C118.559 34.3109 118.522 31.1916 118.818 28.1097C118.8 28.2413 120.039 28.9178 120.187 29.0118C120.668 29.3312 121.13 29.6319 121.611 29.9513C122.572 30.5715 123.516 31.1728 124.477 31.7929C126.401 32.9956 128.343 34.1794 130.303 35.3069C134.187 37.5618 138.182 39.6288 142.288 41.4328C146.116 43.1053 150.037 44.5522 154.051 45.6985C155.401 46.0931 156.769 46.4313 158.157 46.6193C159.47 46.8072 160.875 46.9387 162.169 46.5253C163.186 46.2059 163.89 45.3603 163.964 44.4207C164.075 43.6315 163.945 42.8985 163.593 42.1846Z" fill="#004D77"/>
</svg>
