<svg width="25" height="25" viewBox="0 0 25 25" fill="none" xmlns="http://www.w3.org/2000/svg">
<path opacity="0.963" fill-rule="evenodd" clip-rule="evenodd" d="M10.9609 1.24507C13.6495 1.21253 15.6078 2.33558 16.8355 4.61421C17.7493 6.81138 17.4611 8.8459 15.9709 10.7177C14.0613 12.6673 11.781 13.2126 9.12984 12.3535C7.18246 11.5525 5.97025 10.1609 5.49316 8.17867C5.07588 5.4712 6.0677 3.39601 8.46862 1.95308C9.25862 1.5617 10.0894 1.3257 10.9609 1.24507ZM11.0118 2.8564C13.0436 2.83146 14.4932 3.6941 15.3605 5.44429C16.043 7.40083 15.5598 9.03658 13.9109 10.3515C12.1124 11.4628 10.3492 11.414 8.62121 10.205C7.13343 8.87832 6.71803 7.29141 7.37508 5.44429C8.09122 3.93434 9.30343 3.07171 11.0118 2.8564Z" fill="white"/>
<path opacity="0.963" fill-rule="evenodd" clip-rule="evenodd" d="M9.23156 13.7451C11.4526 13.737 13.6736 13.7451 15.8946 13.7695C16.5385 14.0288 16.6996 14.4601 16.3778 15.0635C16.2709 15.2084 16.1268 15.2979 15.9454 15.332C13.5538 15.3345 11.1633 15.3671 8.7738 15.4297C5.98678 15.9243 4.14727 17.4624 3.2552 20.044C3.0114 21.0552 2.90968 22.0806 2.95003 23.1201C2.87853 23.3678 2.71747 23.5387 2.46683 23.6328C1.89965 23.7878 1.51818 23.6007 1.32242 23.0713C1.0281 20.158 1.98601 17.7084 4.19616 15.7227C5.65582 14.55 7.33428 13.8908 9.23156 13.7451Z" fill="white"/>
<path opacity="0.966" fill-rule="evenodd" clip-rule="evenodd" d="M19.7601 14.8193C20.2864 14.7097 20.651 14.8888 20.8537 15.3564C20.8791 16.3816 20.8876 17.407 20.8791 18.4326C21.9304 18.4244 22.9816 18.4326 24.0326 18.457C24.6765 18.7162 24.8376 19.1475 24.5158 19.7509C24.409 19.8958 24.2648 19.9853 24.0834 20.0195C23.0155 20.0439 21.9474 20.052 20.8791 20.0439C20.8876 21.0694 20.8791 22.0948 20.8537 23.1201C20.7247 23.4918 20.4534 23.6871 20.0399 23.706C19.6188 23.6672 19.3475 23.4556 19.2261 23.0712C19.2006 22.0623 19.1921 21.0531 19.2006 20.0439C18.1324 20.052 17.0642 20.0439 15.9963 20.0195C15.4212 19.7519 15.2771 19.3369 15.564 18.7744C15.6842 18.6099 15.8453 18.504 16.0471 18.457C17.0982 18.4326 18.1494 18.4244 19.2006 18.4326C19.1921 17.4233 19.2006 16.4142 19.2261 15.4052C19.3259 15.1388 19.5039 14.9435 19.7601 14.8193Z" fill="white"/>
</svg>
