<svg width="24" height="24" viewBox="0 0 24 24" fill="none" xmlns="http://www.w3.org/2000/svg">
<path opacity="0.943" fill-rule="evenodd" clip-rule="evenodd" d="M9.95358 1.00475C13.7516 0.903612 16.6942 2.41848 18.7814 5.54936C20.3777 8.32539 20.6171 11.2156 19.4996 14.22C19.0793 15.1902 18.5306 16.0772 17.8537 16.881C19.4996 18.5254 21.1455 20.1698 22.7913 21.8143C23.0792 22.1732 23.0692 22.522 22.7614 22.8607C22.4291 23.0646 22.1099 23.0447 21.8038 22.8009C20.1579 21.1565 18.5121 19.5121 16.8662 17.8676C13.9971 20.1968 10.7952 20.7848 7.26035 19.6317C4.29576 18.4617 2.33067 16.3588 1.36516 13.323C0.380247 9.35929 1.38771 6.00065 4.38757 3.24715C6.0153 1.93111 7.87064 1.18364 9.95358 1.00475ZM10.4324 2.32029C14.0913 2.45745 16.6948 4.17162 18.2428 7.46287C19.3909 10.6465 18.8921 13.5367 16.7465 16.1335C14.1003 18.7913 10.998 19.4989 7.4399 18.2563C4.22095 16.7418 2.50524 14.2004 2.29283 10.6321C2.46311 7.15055 4.09897 4.62913 7.2005 3.06776C8.24051 2.62297 9.3178 2.37382 10.4324 2.32029Z" fill="white" stroke="white" stroke-width="1.1"/>
</svg>
